<?xml version="1.0" standalone="no"?>
<!DOCTYPE svg PUBLIC "-//W3C//DTD SVG 1.1//EN" "http://www.w3.org/Graphics/SVG/1.1/DTD/svg11.dtd">
<svg xmlns="http://www.w3.org/2000/svg" id="Layer_1" data-name="Layer 1" viewBox="0 0 657.12 821.79" width="657.1199951171875" height="821.7899780273438">
  <defs>
    <style>
      .cls-1 {
        fill: #fff;
      }
    </style>
  </defs>
  <g id="_000400ff" data-name="#000400ff">
    <g>
      <path class="cls-1" d="M648.72,368.72c7.05,37.46,9.98,75.81,6.96,113.86-4.38,59.19-18.26,118.4-46.3,171.02-23.26,44.09-56.83,82.93-98.1,111.03-48.18,33.25-105.91,51.34-164.05,55.55-4.08-.19-7.9,1.74-11.98,1.29-6.05-.36-12.13,.26-18.16-.19-5.96-1.6-12.2-.97-18.25-2.02-32.05-3.25-63.69-10.76-93.62-22.68-33.02-13.15-63.76-32.04-90.25-55.75-27.76-24.86-50.75-54.92-68.08-87.88C20.48,603.13,6.7,547.4,1.67,491.46c-1.89-17.24-1.32-34.62-1.41-51.93,.01-22.1,3.07-44.05,6.67-65.81,10.82-59.28,32.13-116.47,61.33-169.11,27.22-48.66,61.17-93.89,102.51-131.46,25.11-22.54,52.98-42.43,83.96-56.06,17.54-7.64,36.03-13.38,55.08-15.61,25.17-3.47,50.87,.71,74.77,8.86,32.45,11.23,61.92,29.82,88.29,51.61,31.53,26.14,58.88,57.08,82.59,90.42,45.56,64.62,78.22,138.63,93.26,216.35Zm-66.31,156.88c1.06-12.16-1.98-24.91-9.52-34.63-10-13.24-26.35-20.86-42.71-21.97-8.24-.51-17.83,1.34-22.82,8.56-3.29,4.33-1.14,11.13,3.73,13.25,7.53,2.22,15.75-.5,23.05,2.74,7.99,3.3,13.05,13.22,9.77,21.48-2.11,4.96-6.28,8.77-10.92,11.36-9.04,5.08-20.09,5.45-29.96,2.85-12.01-3.26-22.41-10.7-31.12-19.39-26.51-26.43-61.96-45.15-99.72-47.32-17.95-.32-36.76,3.86-50.8,15.6-15-12.27-35.19-16.19-54.14-14.85-31.24,2.5-60.72,16.72-84.59,36.63-7.03,5.58-12.82,12.53-19.93,18.02-7.98,6.23-17.29,11.19-27.4,12.71-9.67,1.77-20.18-.16-28.24-5.91-3.71-2.57-6.6-6.32-8.18-10.54-2.5-8.71,3.57-18.55,12.17-20.94,5.96-2.06,12.31-.65,18.42-1.44,5.5-.38,9.88-6.82,7.42-11.95-2.42-5.46-8.12-8.61-13.75-9.76-8.67-1.68-17.7-.35-25.97,2.51-14.01,4.64-26.68,14.7-32.46,28.5-4.67,10.44-4.94,22.4-2.51,33.45,3.82,17.89,14.26,34.12,28.52,45.52,14.75,12.05,32.75,19.5,51.18,23.81,13.17,3.48,26.82,4.15,40.33,5.25,6.63,.12,13.31,.33,19.9-.63,23.21-1.02,46.19-5.93,68.05-13.74,18.55-6.62,36.12-16.03,51.76-28.02,25.47,19.77,56.32,31.58,87.78,37.65,20.59,4.08,41.71,4.76,62.62,3.54,19.85-1.48,39.64-5.85,57.75-14.25,14.34-6.74,27.52-16.42,37.1-29.15,8.46-11.28,13.76-24.91,15.19-38.94Z"/>
      <path d="M572.89,490.97c7.54,9.72,10.58,22.47,9.52,34.63-1.43,14.03-6.73,27.66-15.19,38.94-9.58,12.73-22.76,22.41-37.1,29.15-18.11,8.4-37.9,12.77-57.75,14.25-20.91,1.22-42.03,.54-62.62-3.54-31.46-6.07-62.31-17.88-87.78-37.65-15.64,11.99-33.21,21.4-51.76,28.02-21.86,7.81-44.84,12.72-68.05,13.74-6.59,.96-13.27,.75-19.9,.63-13.51-1.1-27.16-1.77-40.33-5.25-18.43-4.31-36.43-11.76-51.18-23.81-14.26-11.4-24.7-27.63-28.52-45.52-2.43-11.05-2.16-23.01,2.51-33.45,5.78-13.8,18.45-23.86,32.46-28.5,8.27-2.86,17.3-4.19,25.97-2.51,5.63,1.15,11.33,4.3,13.75,9.76,2.46,5.13-1.92,11.57-7.42,11.95-6.11,.79-12.46-.62-18.42,1.44-8.6,2.39-14.67,12.23-12.17,20.94,1.58,4.22,4.47,7.97,8.18,10.54,8.06,5.75,18.57,7.68,28.24,5.91,10.11-1.52,19.42-6.48,27.4-12.71,7.11-5.49,12.9-12.44,19.93-18.02,23.87-19.91,53.35-34.13,84.59-36.63,18.95-1.34,39.14,2.58,54.14,14.85,14.04-11.74,32.85-15.92,50.8-15.6,37.76,2.17,73.21,20.89,99.72,47.32,8.71,8.69,19.11,16.13,31.12,19.39,9.87,2.6,20.92,2.23,29.96-2.85,4.64-2.59,8.81-6.4,10.92-11.36,3.28-8.26-1.78-18.18-9.77-21.48-7.3-3.24-15.52-.52-23.05-2.74-4.87-2.12-7.02-8.92-3.73-13.25,4.99-7.22,14.58-9.07,22.82-8.56,16.36,1.11,32.71,8.73,42.71,21.97Z"/>
    </g>
  </g>
</svg>