<?xml version="1.0" standalone="no"?>
<!DOCTYPE svg PUBLIC "-//W3C//DTD SVG 20010904//EN"
"http://www.w3.org/TR/2001/REC-SVG-20010904/DTD/svg10.dtd">
<svg version="1.0" xmlns="http://www.w3.org/2000/svg"
width="1080.000000pt" height="1280.000000pt" viewBox="0 0 1080.000000 1280.000000"
preserveAspectRatio="xMidYMid meet">
<metadata>
Created by potrace 1.15, written by Peter Selinger 2001-2017
</metadata>
<g transform="translate(0.000000,1280.000000) scale(0.100000,-0.100000)"
fill="#ffffff" stroke="none">
<path d="M9966 12728 c-24 -40 -93 -171 -152 -291 l-107 -218 -57 143 c-69
177 -110 254 -159 302 l-38 37 -21 -49 c-22 -50 -55 -214 -67 -334 -5 -47 -12
-68 -21 -68 -7 0 -58 45 -113 99 -56 54 -123 117 -150 140 l-49 41 -21 -29
c-12 -16 -21 -42 -21 -58 1 -100 129 -504 210 -664 l20 -38 -48 -6 c-202 -25
-333 -64 -430 -128 -349 -229 -437 -290 -544 -376 -211 -170 -337 -313 -447
-508 -76 -134 -125 -252 -266 -629 -210 -561 -286 -735 -361 -822 -41 -49
-154 -142 -236 -197 -32 -21 -58 -43 -58 -49 0 -6 -48 -41 -107 -77 -251 -154
-383 -198 -511 -168 -53 12 -60 8 -342 -173 -319 -204 -514 -310 -680 -368
-101 -36 -201 -36 -600 0 -264 24 -415 33 -590 34 -251 1 -314 -6 -475 -51
-85 -24 -98 -25 -270 -20 -176 5 -299 23 -350 49 -46 25 -196 212 -308 384
-184 284 -322 563 -659 1329 -318 725 -488 1020 -645 1124 -144 95 -297 67
-318 -59 -16 -92 43 -298 166 -581 38 -88 69 -162 69 -165 0 -3 -22 21 -49 53
-67 82 -165 168 -220 195 -90 44 -169 20 -213 -65 -18 -35 -22 -58 -22 -142 0
-146 53 -349 158 -605 30 -74 54 -135 53 -137 -1 -1 -29 37 -61 85 -146 216
-308 407 -387 458 -20 12 -52 26 -72 29 -29 6 -40 2 -68 -23 -30 -27 -33 -36
-37 -96 -8 -130 57 -366 202 -733 31 -78 56 -144 56 -147 0 -2 -23 11 -50 29
-28 19 -66 37 -84 41 -38 7 -86 -14 -109 -46 -14 -20 -14 -20 -52 0 -75 38
-150 18 -181 -49 -26 -53 -14 -183 26 -296 76 -216 256 -550 523 -970 l89
-140 -139 141 c-300 305 -454 398 -527 319 -65 -70 -22 -238 126 -499 66 -118
230 -367 346 -528 l92 -128 -143 0 c-165 -1 -271 -17 -356 -56 -98 -43 -140
-115 -93 -157 40 -36 278 -104 590 -169 l113 -23 -132 -12 c-257 -23 -369 -85
-371 -204 -1 -72 53 -123 172 -162 41 -14 97 -29 124 -33 l49 -7 -93 -47
c-142 -74 -187 -127 -168 -199 22 -80 100 -122 260 -142 51 -6 133 -9 181 -6
86 6 88 5 81 -15 -24 -78 14 -160 93 -199 44 -22 60 -24 198 -24 120 1 171 6
255 24 58 13 113 24 123 25 14 1 27 -22 58 -104 84 -222 201 -435 301 -550
119 -135 377 -284 762 -438 l168 -67 44 -124 c49 -143 124 -302 187 -399 102
-155 188 -222 350 -272 227 -71 407 -182 812 -503 88 -70 178 -134 200 -143
40 -15 42 -18 60 -87 119 -468 416 -1411 491 -1559 l14 -26 -115 -55 c-158
-76 -202 -109 -226 -165 -35 -81 -82 -222 -76 -228 8 -8 109 31 180 68 32 17
71 47 88 65 37 42 64 51 194 59 l102 7 144 -48 c79 -26 266 -93 414 -148 285
-105 300 -113 478 -250 l99 -76 29 22 c17 12 27 27 24 35 -14 36 -132 233
-168 280 -31 41 -58 63 -116 92 -42 22 -89 48 -105 59 l-30 20 25 5 c62 15
140 30 429 86 172 33 317 63 323 67 7 4 18 15 26 26 13 19 14 19 24 1 27 -52
258 -440 304 -512 29 -46 54 -88 56 -93 1 -5 -44 -25 -100 -44 -121 -40 -170
-64 -200 -97 -23 -25 -133 -228 -133 -246 0 -7 25 -4 73 9 129 35 167 50 211
84 58 44 84 48 222 35 l118 -11 52 -58 c30 -32 68 -65 86 -73 18 -9 76 -19
128 -22 110 -8 352 -36 602 -70 182 -25 184 -25 445 -141 61 -27 63 -28 83
-10 11 10 20 26 20 35 0 23 -213 245 -264 274 -22 13 -57 27 -76 31 -19 4 -65
16 -103 28 -55 17 -64 23 -50 31 10 6 171 79 358 162 360 160 402 186 359 219
-36 27 -219 17 -598 -36 -81 -11 -153 -18 -160 -16 -15 6 85 27 224 47 l115
16 3 37 c3 34 1 36 -35 46 -75 19 -190 32 -283 32 -110 0 -200 -21 -443 -104
l-158 -54 -61 81 c-190 254 -432 661 -632 1064 l-85 172 27 5 c57 12 101 43
197 140 133 132 342 412 414 554 12 23 53 76 92 119 244 266 402 521 503 811
52 150 95 313 162 618 25 114 47 210 50 214 2 4 30 17 61 29 95 38 303 146
381 198 112 75 208 159 272 239 77 95 99 134 167 290 273 631 430 1299 449
1908 5 146 11 205 25 255 25 83 20 117 -42 250 -77 168 -77 169 -24 388 72
294 92 378 119 514 63 313 74 481 38 608 -39 141 -122 587 -122 658 l0 34 48
-36 c119 -87 266 -131 410 -124 68 3 98 10 137 30 102 53 184 165 216 298 15
60 18 259 7 358 l-8 62 73 -6 c48 -5 80 -13 97 -26 41 -32 91 -49 162 -55 64
-6 68 -5 97 25 23 23 31 40 31 66 0 120 -135 319 -317 468 l-76 61 29 21 c98
68 168 175 206 315 29 105 31 352 4 456 -32 120 -56 177 -71 165 -9 -7 -16 -6
-25 5 -16 19 -60 19 -88 -1 l-22 -15 0 98 c0 123 -15 252 -36 315 l-16 48 -40
-22 c-46 -26 -123 -120 -211 -260 -56 -88 -59 -91 -53 -53 3 22 10 126 16 230
17 292 -7 455 -65 455 -18 0 -34 -16 -69 -72z m-4492 -9729 c67 -34 136 -75
155 -93 48 -44 121 -161 246 -391 167 -309 193 -341 289 -369 52 -15 55 -18
91 -88 76 -146 271 -506 341 -630 40 -71 70 -128 67 -128 -4 0 -14 7 -23 15
-10 9 -53 22 -96 30 -95 17 -409 53 -541 62 -51 3 -96 10 -99 15 -7 11 57 10
215 -3 73 -6 134 -9 137 -7 2 3 7 18 10 36 6 29 3 32 -42 55 -27 14 -98 42
-159 62 -88 30 -129 39 -205 43 -83 4 -407 -19 -482 -34 -24 -5 -29 0 -48 43
-122 271 -254 664 -354 1053 l-43 171 141 73 c77 41 168 89 201 109 33 19 64
36 69 36 5 1 64 -27 130 -60z"/>
</g>
</svg>
